# xmcd
#
# Track frame offsets:
#	150
#	17675
#	34743
#	49968
#	64695
#	80562
#	101184
#	119249
#	140306
#	157201
#	166875
#
# Disc length: 2430 seconds
#
# Revision: 1
# Processed by: cddbd v1.5.2PL0 Copyright (c) Steve Scherf et al.
# Submitted via: audiograbber 1.83.01
#
DISCID=9b097c0b
DTITLE=William Hut - Nightfall
DYEAR=2006
DGENRE=
TTITLE0=You might trill me
TTITLE1=Take it easy
TTITLE2=Nightfall
TTITLE3=Echo
TTITLE4=It slips away
TTITLE5=Eclipse
TTITLE6=Mannerism
TTITLE7=Falling star
TTITLE8=My everything
TTITLE9=Elected
TTITLE10=Passing through
EXTD=
EXTT0=
EXTT1=
EXTT2=
EXTT3=
EXTT4=
EXTT5=
EXTT6=
EXTT7=
EXTT8=
EXTT9=
EXTT10=
PLAYORDER=
